<svg id="Layer_1" data-name="Layer 1" xmlns="http://www.w3.org/2000/svg" viewBox="0 0 1366 768"><defs><style>.cls-1{fill:#74c902;}.cls-2{fill:#8553bd;}</style></defs><path class="cls-1" d="M531.14,117.69C600.73,54,685.29,35.91,779.44,49.82c-3.66,1.83-7.17,4.07-11,5.43-70.13,25-124.35,70.09-164.79,132.15-2.41,3.7-2.43,11.5-.14,15.36C669.06,313.6,673.16,427.9,621,544.24c-11.13,24.84-28.09,47.61-45.21,69C548.9,647,515.9,674,476,691.81c-12.47,5.56-24.26,12.66-36.75,19.26-6.64-21-11.51-39.8-18.55-57.76-9.23-23.53-20.94-46.08-30.13-69.63-7.74-19.83-.66-28.85,19.78-28.27,8.69.25,17.39.49,26.08.27,20.54-.51,25.3-5.81,30.19-26,2.15-8.86,8.8-16.61,14.25-26.36l-9.41-9.89c15.73-5.57,22.3-16.8,16.42-32.77,23-8.75,26-12.73,14.48-29.65-14.28-20.91-14.57-41.29-11.12-65.45,3.27-23-1.46-47.08-3-70.66-.46-6.81-2.17-13.53-3.52-21.59h14.27c-17.09-41.43-64.25-45.65-86.66-72.45-13.38-.62-23.93-1.1-34.48-1.6l-103.13-5c-.66-4.46-1.61-10.9-2.56-17.34l-2.83-.17c-1.76,6.12-3.52,12.23-5.85,20.3l-6.81-8.33-27,10.94L253.34,202c-13.35,19.23-24.66,35.39-35.84,51.65-29.71,43.22-40.74,91-28.36,141.87,4.26,17.49,16.19,33.88,27.34,48.71,15.46,20.55,41,35.13,35.09,66.8,14.74,5.32,6,14.39,7.37,22.27.94,7.46,5.34,17.06,2.28,22-23.77,38.51-30,82.84-43.29,124.8-1.29,4.07-2.66,8.11-4.29,13.08C142.32,660.05,94.16,606,62,536.3c-17.5-37.88-27.27-77.57-30.83-119.17a339.55,339.55,0,0,1,26.31-164C90,176.53,142.18,119.26,218.43,82.7c76.77-36.81,153.81-36.45,231.49-9C477.89,83.54,502.83,102,531.14,117.69Z"/><path class="cls-2" d="M1072.27,526.33l17.82-5c-20.21-10.18-22.81-20.34-9.37-38.45,11.61-15.63,25.61-29.47,37.44-45,30.51-39.95,27-84,14.11-128.93-1.19-4.14-2.8-8.15-4.22-12.25,21.48-5.34,40,6.8,41.67,29.69a112.47,112.47,0,0,1-4.89,41.48c-7.36,23.09-9.83,46.79-2.67,68.89,4.81,14.85,18.59,26.85,28.88,39.7.9,1.12,5.72-1.09,8.75-1.46s6.57-1.51,8.91-.34c17.44,8.77,32.25-2.45,48.2-4.71-43.56-6.49-58.3-46.84-37.83-77.28,6-8.87,9.48-19.39,14.13-29.15,12.22-25.64,18.71-52.53,12.37-80.64-13.16-58.29-68.17-87.82-123.44-60.17-8.85,4.43-14.59,15.13-20.82,21.9-2.82-.39-3.71-.29-3.84-.56-23.27-47.92-68.25-43.46-109.66-43.33-23.48.08-47.21,6.46-70.33,12.07-31.1,7.55-57.18,25-79.7,47.34-6.43,6.36-9.95,15.68-14.8,23.64l4.08,2.87,5.8-10.82c3.42,3,5.29,3.83,5.54,5,.65,3.06,1.53,6.55.67,9.36-10.75,35.23-10.74,70.37-2.35,106.23,1.8,7.71-3.61,17.45-6.69,25.89-2.56,7.06-6.26,13.76-10,20.3-5.8,10.13-2.88,16.94,7.76,19.89,7.91,2.19,11.29,5.87,8.4,14-5.23,14.62.27,21.72,19.21,21.14-12.55,8.87-15.27,16-3.15,23.92,3.25,2.12,4.41,8.44,5.26,13.07,4,21.79,13.92,30.43,36.23,30.54,8.69,0,17.45.3,26-.66,13.69-1.54,17.78,5.46,16.1,17.28-1,6.86-2.53,14-5.58,20.15-17.36,34.9-28.38,71.52-31.54,114.3-14.28-8.1-26.65-16-39.79-22.16-5.06-2.39-12.75-3.15-17.73-1.06-33.81,14.2-67,29.83-100.8,44.1-54.93,23.22-111.71,23.16-169.14,11.73a64.18,64.18,0,0,1-7.17-2.29l.08-4.72c8.5,0,17,0,25.5,0,38.66.17,74.91-9.46,105-33.63,29.33-23.52,52.87-52.74,65.61-89,1.38-4-.88-10.5-3.57-14.37-49.11-70.82-72.23-149-66.22-235.23,4.56-65.29,24.73-125.19,63.12-178.83,33.82-47.27,76.25-82.63,129-107.91,77.42-37.09,155.45-36.91,233.5-7.9a293.83,293.83,0,0,1,130.39,96.42c69.57,90.06,93.68,192,68.25,304-14.1,62.13-43.2,115.75-87.26,162.71-28.91,30.82-64.78,49.07-101.26,74.14-15.3-65.28-40-123.29-75.48-174.71,13,4.47,23.8,9.86,35.14,11.36,5.18.69,11.37-6.27,15.69-8.9l-29.14-13.87Z"/></svg>