<svg id="Layer_1" data-name="Layer 1" xmlns="http://www.w3.org/2000/svg" viewBox="0 0 1366 768"><defs><style>.cls-1{fill:#fefefe;}.cls-2{fill:#e5f6e2;}.cls-3{fill:#ccebca;}.cls-4{fill:#79c676;}.cls-5{fill:#266034;}.cls-6{fill:#cbebc9;}.cls-7{fill:#ccecc9;}.cls-8{fill:#a968f6;}.cls-9{fill:#8c4ddd;}.cls-10{fill:#95d695;}.cls-11{fill:#a968f7;}.cls-12{fill:#66b660;}.cls-13{fill:#4d9e5b;}.cls-14{fill:#0d1913;}.cls-15{fill:#94d794;}.cls-16{fill:#fcfcfb;}.cls-17{fill:#c1e4be;}.cls-18{fill:#f2a493;}.cls-19{fill:#aedfaa;}.cls-20{fill:#1a4425;}.cls-21{fill:#bfe6bb;}.cls-22{fill:#76b773;}.cls-23{fill:#81697e;}.cls-24{fill:#68c17b;}.cls-25{fill:#294e2c;}.cls-26{fill:#763dc5;}.cls-27{fill:#122a1a;}.cls-28{fill:#94d893;}.cls-29{fill:#f6a391;}.cls-30{fill:#c9eac8;}</style></defs><path class="cls-1" d="M-16-61H1365.5V860H-16ZM1192.07,698.21c5.6-4.73,11.29-9.38,16.8-14.23,7.73-6.82,15.6-13.51,22.89-20.78,5.77-5.74,10.52-12.49,16.13-18.39,9.49-10,17.19-21.26,24-33a312.58,312.58,0,0,0,18.29-36.45,208.57,208.57,0,0,0,12-36.28,143.69,143.69,0,0,0,2.36-46.21,128.79,128.79,0,0,0-12.43-43.13c-5.88-12-14.36-22.47-23.12-32.61-6.49-7.53-13.49-14.78-18.89-23a230.55,230.55,0,0,1-17.45-31.91,364.52,364.52,0,0,1-14.34-38.37c-2.49-7.85-3.59-16.19-4.78-24.38-2.27-15.57-4.48-31.15-6.11-46.79-1.14-11-1.27-22-1.9-33-.88-15.46-1.61-30.94-2.75-46.38-1-14.1-3.18-28-8-41.45-7.34-20.55-20.88-34.91-41.12-43.08-14.73-6-30.32-7.61-45.88-8.46-21.77-1.18-43.47,1-65,4.33-17.17,2.64-34.27,5.73-51.46,8.24-10.43,1.52-21,3-31.45,3.23-11.74.23-23.54-.75-35.26-1.72A133.19,133.19,0,0,1,904,91c-13.06-3.18-26.11-6.51-38.91-10.55-10.58-3.33-20.86-7.65-31.19-11.76-12.22-4.86-24.42-9.8-36.5-15-8.93-3.85-17.45-8.74-26.54-12.14-17.2-6.44-34.56-12.51-52.09-18-9.44-3-19.33-4.61-29.09-6.45a143,143,0,0,0-19.86-2.52,272,272,0,0,0-29,0c-11.7.75-23.51,1.6-35,3.91a333.33,333.33,0,0,0-38.37,10.58c-11,3.61-21.66,8.18-32.27,12.78-6.87,3-13.35,6.86-20.08,10.2s-13.82,6-20.23,9.87q-22,13.2-43.53,27.31c-11.44,7.49-24.2,11.6-37.3,13.83-12.56,2.14-25.48,2.46-38.26,2.92-8.93.32-17.9-.66-26.85-.73-18.87-.13-37.76-.48-56.61.14a161.13,161.13,0,0,0-30.44,4c-13.73,3.15-27.51,7.18-38.54,16.46a141.15,141.15,0,0,0-21.09,21.52c-9.16,11.92-14.3,26.12-17.25,40.71-3.06,15.11-5.8,30.45-6.6,45.8-1.55,29.82,1.47,59.8-2.08,89.6-1.78,15-4.57,29.6-9.46,44-6.89,20.3-19.49,36.52-33.53,52-7.44,8.19-15.67,15.69-22.72,24.18a338.57,338.57,0,0,0-23.09,31c-4.4,6.73-7.41,14.46-10.33,22-3.3,8.52-7.12,17.16-8.35,26.07-2.35,17-5.43,34.13-3.09,51.5,1.49,11,2.19,22.19,4.21,33.11a145.35,145.35,0,0,0,13.53,39.69c3.07,6,5.79,12.29,9.47,17.92a151.57,151.57,0,0,0,26,30.3c1.74,1.55,2.93,3.72,4.38,5.61-6.73,1.9-13.65,3.32-20.12,5.87-3.46,1.36-8.37,4.38-8.72,7.14-.68,5.29,5,7.49,9.34,8.63,13.79,3.66,27.61,7.47,41.66,9.79,22,3.62,44.15,6.44,66.32,8.9,20.71,2.3,41.52,3.83,62.3,5.45,14.41,1.13,28.86,1.9,43.29,2.72q25.25,1.44,50.49,2.69,20.34,1,40.7,1.79,26.64,1,53.29,1.8c12.1.37,24.2.63,36.31.91,14.35.32,28.69.68,43.05.88,25.13.36,50.27.86,75.4.85,34.88,0,69.75-.41,104.62-.74q36.13-.33,72.26-.92c15.1-.23,30.2-.49,45.29-.9Q865.86,755,893,754q35.14-1.28,70.28-2.72,18.56-.76,37.11-1.8,21.64-1.21,43.29-2.68c16.65-1.13,33.3-2.21,49.92-3.65,18.39-1.6,36.82-3,55.09-5.55,21.35-3,42.6-6.84,63.79-10.9,6.06-1.16,11.87-4,17.54-6.65,5.4-2.52,5.81-7.22.73-10.22a63.2,63.2,0,0,0-14.74-6.09C1208.11,701.53,1200,700,1192.07,698.21Z"/><path class="cls-2" d="M123.29,700.92c-1.45-1.89-2.64-4.06-4.38-5.61A151.57,151.57,0,0,1,93,665c-3.68-5.63-6.4-11.9-9.47-17.92A145.35,145.35,0,0,1,70,607.4c-2-10.92-2.72-22.08-4.21-33.11-2.34-17.37.74-34.48,3.09-51.5,1.23-8.91,5-17.55,8.35-26.07,2.92-7.56,5.93-15.29,10.33-22a338.57,338.57,0,0,1,23.09-31c7-8.49,15.28-16,22.72-24.18,14-15.44,26.64-31.66,33.53-52,4.89-14.41,7.68-29.06,9.46-44,3.55-29.8.53-59.78,2.08-89.6.8-15.35,3.54-30.69,6.6-45.8,2.95-14.59,8.09-28.79,17.25-40.71a141.15,141.15,0,0,1,21.09-21.52c11-9.28,24.81-13.31,38.54-16.46a161.13,161.13,0,0,1,30.44-4c18.85-.62,37.74-.27,56.61-.14,8.95.07,17.92,1,26.85.73,12.78-.46,25.7-.78,38.26-2.92,13.1-2.23,25.86-6.34,37.3-13.83q21.5-14.07,43.53-27.31c6.41-3.85,13.51-6.52,20.23-9.87s13.21-7.22,20.08-10.2c10.61-4.6,21.3-9.17,32.27-12.78a333.33,333.33,0,0,1,38.37-10.58c11.47-2.31,23.28-3.16,35-3.91a272,272,0,0,1,29,0,143,143,0,0,1,19.86,2.52c9.76,1.84,19.65,3.49,29.09,6.45,17.53,5.48,34.89,11.55,52.09,18,9.09,3.4,17.61,8.29,26.54,12.14,12.08,5.2,24.28,10.14,36.5,15,10.33,4.11,20.61,8.43,31.19,11.76,12.8,4,25.85,7.37,38.91,10.55a133.19,133.19,0,0,0,20.65,3.32c11.72,1,23.52,2,35.26,1.72,10.5-.2,21-1.71,31.45-3.23,17.19-2.51,34.29-5.6,51.46-8.24,21.54-3.32,43.24-5.51,65-4.33,15.56.85,31.15,2.51,45.88,8.46,20.24,8.17,33.78,22.53,41.12,43.08,4.8,13.45,6.93,27.35,8,41.45,1.14,15.44,1.87,30.92,2.75,46.38.63,11,.76,22.06,1.9,33,1.63,15.64,3.84,31.22,6.11,46.79,1.19,8.19,2.29,16.53,4.78,24.38a364.52,364.52,0,0,0,14.34,38.37,230.55,230.55,0,0,0,17.45,31.91c5.4,8.26,12.4,15.51,18.89,23,8.76,10.14,17.24,20.6,23.12,32.61a128.79,128.79,0,0,1,12.43,43.13,143.69,143.69,0,0,1-2.36,46.21,208.57,208.57,0,0,1-12,36.28,312.58,312.58,0,0,1-18.29,36.45c-6.85,11.76-14.55,23.05-24,33-5.61,5.9-10.36,12.65-16.13,18.39-7.29,7.27-15.16,14-22.89,20.78-5.51,4.85-11.2,9.5-16.8,14.23-11.42-1.73-22.82-3.54-34.25-5.16-9.68-1.38-19.38-2.71-29.11-3.71-11.07-1.15-22.17-2-33.26-2.83-12.43-1-24.88-1.76-37.31-2.63-.24-2.21-.6-4.42-.69-6.64q-1.18-28.54-2.28-57.1c4,0,8.09.12,12.12,0,31.32-1.06,60.56-25.47,66.75-56.25,3.29-16.36,5.71-32.89,8.54-49.34q7.45-43.42,14.93-86.85c2-11.9,3.85-23.84,5.77-35.76q2-10.79,4-21.57l.42-3.68a36.93,36.93,0,0,0-2.55-22.89c-.1-.75-.2-1.5-.29-2.24a37.46,37.46,0,0,0-14.21-19.6c-10.49-7.7-22.49-5.3-34.18-4.88h-10.8l-43.91,0h-57.52l-25.14-.18A30,30,0,0,1,978,314c-2.79-10.7-8.74-18.75-19-23.56-12-5.64-24.59-8.12-37.72-8.39q-1.23-3.17-2.47-6.34c5.24.26,10.47.57,15.71.75,8.88.3,17.68-.2,26.1-3.41,6.28-2.39,7.39-5.25,3.85-10.91-2.76-4.43-2.52-8.42.51-12.45,1-1.31,2-2.64,3-4,7-9.14,6.4-17.82-2.57-25.14-5.23-4.28-7.52-9.19-7.37-15.87.18-8.77-3.39-16.37-10.47-21.34-5-3.52-11-5.81-16.83-7.95-8.39-3.09-17-5.59-25.52-8.26-4.55-1.43-9.07-3.21-13.74-4-11.82-1.88-23.46,5-25.56,15.4-1.35,6.66-5,10.38-11,12.83-8.93,3.64-10.36,6.34-9.15,15.82.79,6.18.31,11.8-4.4,16.62-9.25,9.47-5.7,22,.85,28.2,3.85,3.66,8.66,6.29,12.79,9.68,2.53,2.08,5.74,4.37,6.65,7.21,2.67,8.31,6.68,12.05,15.49,11.64,4.28-.2,8.52-1.37,12.78-2.1,0,1.28,0,2.56,0,3.85-2.79.21-5.67.08-8.36.71-6.94,1.61-13.83,3.44-20.68,5.41-15.46,4.45-28.53,12.95-40.06,24-14,7.63-27.88,15.38-42,22.81-4.93,2.6-10.29,4.07-15.9,1.55-15.55-7-32-12.14-45.58-23.1a35.72,35.72,0,0,0-23.56-8,25.5,25.5,0,0,0-5,1.08l0,1.51,10.1,3.76c-7.29,7.4-17.32,5.27-26.19,7l.19,1.35,5.92,2.36-7.32,2.22c.09.48.19.95.28,1.43l4.47,2-5.62,2.07,4.57,2.76c-1.3,4.51,2.5,4.06,4.71,4.53,7.65,1.62,14.92,1.05,22-3.15,3-1.77,7.14-1.81,10.8-2.09a7.54,7.54,0,0,1,4.72,1.9c9.69,7.87,18.88,16.4,29,23.73,11.14,8.11,24,11.82,37.69,8.09,11.75-3.19,23.22-7.43,34.76-11.34,7.59-2.58,15.1-5.41,22.64-8.12l2,1.72.71,3.3c-1.44,4.17-.6,8.08,1.22,12,1.51,3.19,2.81,6.48,4.2,9.73-.66,2.14-1.28,4.28-2,6.41-3.22,9.94-10.77,18.41-24,18.21-29.13-.45-58.27-.09-87.41-.07-1.27-.33-2.53-.68-3.81-1a32.24,32.24,0,0,0-40,32.79c.33,6.85,2.74,13.67,4.76,20.34q10.08,33.15,20.61,66.18c2,6.48,4.58,12.81,6.89,19.22a640.31,640.31,0,0,0,15.24,86c3.84,15.46,8.27,30.77,12.44,46.15l.95,2,1,0,.22-.26,2.41.27,1.84.77c-.24.62-.49,1.23-.73,1.85-8.12-.33-16.24-.9-24.36-.94-27.91-.14-55.81-.08-83.72-.1.91-2.37,1.81-4.75,2.72-7.12,4.93-2.93,9.77-6,14.84-8.71,2.25-1.19,5-1.47,7.48-2.17V644h-5l-54.26-.25c5.74-2.49,11.32-5,15.78-9.83,9.36-10.11,11.05-21.79,6.75-34.11-4.63-13.23-16.42-20.94-29.9-21-10-.06-20,0-30.07,0,0-1.88.27-3.86-.19-5.63-.29-1.11-1.72-1.93-2.63-2.88-9.78-5.92-16.22-13.8-17.84-25.74-1.23-9.06,4.64-27,14.15-30.41.83-.3,1.29-1.62,1.92-2.47l1.7-.12,2.63-.27v-9.12H554c0-6.12-.14-12.24-.09-18.36.12-15.93-7.23-24.8-22.88-27.49l-.12-.16-.13.17-2,.08c-1.44-1.13-2.8-2.38-4.33-3.37-5.15-3.34-12.29-5.42-15.13-10.11-5.61-9.29-8.95-20-13-30.15-1.81-4.49-3.15-9.17-4.71-13.76a32.83,32.83,0,0,1,2.81-3.66c2.31-2.3,4.84-4.37,7.13-6.68s2.39-4.66.32-7.5c-7.18-9.84-14-20-21.19-29.76-9-12.2-22-16.56-36.43-17.8-.54-1.39-1.11-2.77-1.62-4.16-2.46-6.68-1.77-8.48,4.46-12,12-6.77,18.13-16.59,16.15-30.78a11.31,11.31,0,0,1,1.13-6.31c3-5.87,1.57-8.68-4.87-8.81.18-2.23.34-4.46.56-6.69,1.51-15.13-6.68-25.42-21.22-26.5-2.92-.21-5.87,0-9.05,0,2.19-3.56-.33-4.65-3-5.22a18.66,18.66,0,0,0-14.58,2.75c-2.83,1.86-5.44,4-8.29,6.2-1-3.48-3.2-2.68-5.09-1.08-5,4.23-9.86,8.65-14.92,13.12-3.73-1.53-5.53-.77-7.94,5a57,57,0,0,0-3.47,34.67c1.88,8.57,7.51,14.3,16.18,16.17,4.31.93,8.89.67,13.34.94,4.48,3.05,9,6,13.39,9.19,4,2.94,6.13,11,4.58,16a80.51,80.51,0,0,0-28.3,11.78,31.66,31.66,0,0,0-12.58,15.31c-4.33,11-5.35,22.87-4.61,34.3,1.48,22.68,4.65,45.26,7.11,67.89-5,1-2.19,4.66-2.4,7.17A30.61,30.61,0,0,0,395.78,502c-22.45.05-44.9-.06-67.35.28a28,28,0,0,0-12.35,3.07c-13.07,7-20.58,24.57-18.1,40.52,1.86,12,6.34,22.31,17.06,29.16,6.65,4.25,14,3.64,21.29,3.82l1.51.9,2,6.58a45.41,45.41,0,0,1,4.25,1.95c3.75,2.18,7.42,4.47,11.13,6.72,2.37,6.33,5.39,12.43,4.51,19.6s-3.63,13-9.69,17l-6.24,4.19,11.42,1h-17v6.46l-7.41.65L316,645.24a20.7,20.7,0,0,0-3.06.45c-16.27,4.81-26.54,15.35-30.51,31.92-.52,1.63-1,3.27-1.76,5.58H258.16c0-2.07.06-4,0-5.91-.2-4.72-.47-9.44-.71-14.15,0-2.58-1.67-2.68-3.62-2.66-6.26.07-12.52-.08-18.77.1-2.91.08-3.88-.87-3.85-3.82.14-15.18.11-30.37.13-45.56,3.75,0,7.5.14,11.23-.13,14-1,26.41-5.35,35.12-17.23,9.59-13.08,12.14-27.72,10.44-43.59-1.09-10.16-6.25-18.35-11.1-26.83-3.22-5.62-6.57-11.26-8.87-17.28C264,495.36,267,484.71,270,474.18c2.69-9.33,2.77-18.43-2.56-27q-3.41-5.47-6.55-11.11c-7-12.56-6-25.9-3-39.1,2.79-12.27,4.27-24.2-.08-36.48-1.86-5.23-5.49-8.68-9.42-11.59a31.15,31.15,0,0,0-24.31-5.33c-13.42,2.38-21.63,6.69-24.29,21.08a80.28,80.28,0,0,0-.72,25.41c1.74,12.39-1.12,23.65-5.2,34.91-2.47,6.79-5.79,13.32-7.76,20.24-2,7.09-3.18,14.38-1.87,22,1.54,8.91,2.09,18,3.24,27,1.7,13.35.28,26.14-6.31,38.12-7.62,13.88-11.83,28.46-8.47,44.42,2.95,14,9.82,25.35,24.47,29,10.14,2.53,20.77,3.12,31.18,4.57V660.5H201.47v27.85c-5.42.91-10.81,1.95-16.25,2.69-8.68,1.18-17.43,1.89-26.07,3.3C147.16,696.29,135.24,698.7,123.29,700.92Zm387-398.43c3.55-.75,6-1,8.3-1.8,11.49-4.27,19.19-13.09,26.29-22.5,3.23-4.28,6-9,12.14-9.43,7.57-.56,15.24-.56,22.66-1.93,10.61-2,21.45-3.89,31.45-7.74a103.48,103.48,0,0,0,41.47-29.2c8.67-10,15.08-21.42,17.84-34.26,1.69-7.83,1.31-16.19,1.12-24.3-.28-12.32-4.83-23.54-11.24-33.8-10.74-17.22-26-29.5-44.51-37.53-11.81-5.12-23.85-9.92-37-10.06s-26.69-1.34-39.71.44c-18.7,2.55-36,10.07-51.27,21.43-12.93,9.6-23.77,21.12-29.89,36.27-5.19,12.83-7.95,26-5.78,40.16a80.13,80.13,0,0,0,9.23,27.54,91.86,91.86,0,0,0,24.35,27.87,98.2,98.2,0,0,0,30.05,16.16c6.24,2,9.37,4.47,8.28,8.42a190.73,190.73,0,0,1-6.62,19.24C515.57,292.11,513.13,296.51,510.26,302.49Zm250.7-148c-.07.4-.13.8-.2,1.2-3.29,0-6.7-.57-9.86.09-14.68,3.08-28.61,7.49-39.83,18.59-12.56,12.41-17.89,27.19-14.78,44.07,2.91,15.81,13.9,27,27.36,34.62,11.66,6.61,24.66,10.62,38.55,9.41,3.57-.31,5.8,1.09,7.72,4.08a43.67,43.67,0,0,0,17,15.47,11.8,11.8,0,0,0,3.21.64,14.63,14.63,0,0,0-.42-3.42c-1.68-4.44-3.59-8.79-5.24-13.24-1.56-4.19-.42-6.82,3-8,14.93-5.21,26.93-13.91,34.57-28.21,6.49-12.15,6.74-24.65,1.91-37-6.91-17.71-21.3-27.69-38.6-33.46C777.51,156.68,769.09,156,761,154.47Zm318.39-33.11c-25.21-1.29-48.69,20.78-48,48.82.65,25.51,19.61,47,48.73,47.11,26.43.06,47.74-22,47.49-49.21C1127.37,143.72,1105.35,119.74,1079.35,121.36Z"/><path class="cls-3" d="M1058.14,683.88c12.43.87,24.88,1.68,37.31,2.63,11.09.85,22.19,1.68,33.26,2.83,9.73,1,19.43,2.33,29.11,3.71,11.43,1.62,22.83,3.43,34.25,5.16,8,1.82,16,3.32,23.89,5.55a63.2,63.2,0,0,1,14.74,6.09c5.08,3,4.67,7.7-.73,10.22-5.67,2.64-11.48,5.49-17.54,6.65-21.19,4.06-42.44,7.92-63.79,10.9-18.27,2.55-36.7,4-55.09,5.55-16.62,1.44-33.27,2.52-49.92,3.65q-21.65,1.47-43.29,2.68-18.55,1-37.11,1.8Q928.1,752.74,893,754q-27.08,1-54.18,1.76c-15.09.41-30.19.67-45.29.9q-36.13.54-72.26.92c-34.87.33-69.74.72-104.62.74-25.13,0-50.27-.49-75.4-.85-14.36-.2-28.7-.56-43.05-.88-12.11-.28-24.21-.54-36.31-.91q-26.64-.81-53.29-1.8-20.35-.76-40.7-1.79-25.25-1.25-50.49-2.69c-14.43-.82-28.88-1.59-43.29-2.72-20.78-1.62-41.59-3.15-62.3-5.45-22.17-2.46-44.32-5.28-66.32-8.9-14-2.32-27.87-6.13-41.66-9.79-4.3-1.14-10-3.34-9.34-8.63.35-2.76,5.26-5.78,8.72-7.14,6.47-2.55,13.39-4,20.12-5.87,12-2.22,23.87-4.63,35.86-6.58,8.64-1.41,17.39-2.12,26.07-3.3,5.44-.74,10.83-1.78,16.25-2.69,2.68,8.95,8.15,15.25,17.64,16.69,5.26.8,10.72.27,16.09.41,11.49.3,22.62-8.67,22.12-22.17-.25-6.7.06-13.43.11-20.15.24,4.71.51,9.43.71,14.15.08,1.92,0,3.84,0,5.91h22.49c.73-2.31,1.24-4,1.76-5.58,0,3.27-.22,6.55,0,9.81,1.14,18.15,19.69,35.41,37.63,35.12a70.13,70.13,0,0,0,7,.68q171.38.09,342.74.11h5.78c-.5-3.4-.91-6.21-1.33-9a4.19,4.19,0,0,0-1.14-.64c-11.46-2-20.1-8-24.61-18.75-3.3-7.84-3.87-16.08,1.49-23.66,27.91,0,55.81,0,83.72.1,8.12,0,16.24.61,24.36.94.42,6.75-2.65,11.47-8.08,15.29-3.38,2.37-6.16,5.61-9.2,8.47-.7,0-1.59-.27-2.08.06-5.49,3.61-11.05,7.16-16.29,11.11-1.55,1.17-2.18,3.57-3.23,5.4,1.88.64,3.75,1.85,5.62,1.84,17.38,0,34-4.15,50.38-9.63,1.63-.55,3.39-3.05,3.65-4.85.65-4.55.49-9.23.66-13.85q-.57-7.93-1.13-15.86c1.82,5.76,3.83,11.47,5.4,17.3.67,2.47,1.63,3.38,4.21,3.31,4.44-.14,8.88.12,13.32.22-.4,8.43-3.58,15.29-10.81,20.13a101.55,101.55,0,0,0-8.07,6.64c-5.18,3.18-10.57,6.08-15.46,9.65-2.3,1.68-3.66,4.64-5.44,7,2.88.76,5.89,2.46,8.62,2.1,11.5-1.55,23.13-2.91,34.32-5.84,18.71-4.9,17.34-1.5,17.18-22.77l-1.1-16.93,6.19-.53c-.47-6-.92-11.73-1.38-17.48q26.57.9,53.12,1.79,15.4.5,30.81.89c12.36.33,24.73.48,37.09,1,5.91.24,11.8,1.11,17.7,1.69q1.59,10.38,3.2,20.78c.48,3.11,1.4,6.08,5.15,6.3s5.73-2.22,6.68-5.49a20.86,20.86,0,0,0,.84-5.7c0-5.24-.25-10.47-.4-15.7,1.76.24,3.52.63,5.28.71,14.61.65,29.22,1.15,43.82,1.91,4.73.24,9.42,1.13,14.13,1.73.92,5.59,1.49,11.28,2.91,16.74.57,2.19,3,5.42,4.6,5.46,2.18.06,4.92-2.14,6.47-4.12,1.22-1.56,1.24-4.22,1.35-6.42C1058.31,691.06,1058.15,687.47,1058.14,683.88Z"/><path class="cls-4" d="M1167.7,366.67l-.42,3.68c-.43.52-1.17,1-1.25,1.56-1,6.67-1.85,13.34-2.75,20-1.92,11.92-3.75,23.86-5.77,35.76q-7.4,43.44-14.93,86.85c-2.83,16.45-5.25,33-8.54,49.34-6.19,30.78-35.43,55.19-66.75,56.25-4,.14-8.08,0-12.12,0h-78.1c-1.92.05-3.85.07-5.77.16-5,.23-9.93.49-14.9.74l-15.85-.57c.37-.4.69-1.09,1.12-1.16a73.67,73.67,0,0,0,35.94-16.57c10.89-9.28,19.12-20.65,23.17-34.4,7.92-26.84,15.37-53.82,22.87-80.78,4.83-17.36,9.63-34.74,14-52.23a28.64,28.64,0,0,0-3.67-22.76,41.63,41.63,0,0,0-15.42-14.41,27.23,27.23,0,0,1,4.66-.86c10.93-.07,21.86.25,32.78-.12a24.12,24.12,0,0,0,21.85-14.49c6.07-13.16,10.71-27,16.2-40.41a36.12,36.12,0,0,1,13.25-16.39q5.58-3.83,11.14-7.68c6.1.09,12.45-.88,18.24.5a37.83,37.83,0,0,1,24.14,17.81,45.62,45.62,0,0,0,4,5c.09.74.19,1.49.29,2.24q1,11.12,2,22.22C1167.18,366.24,1167.51,366.45,1167.7,366.67Z"/><path class="cls-5" d="M801.32,691.11c-4.45-.1-8.89-.36-13.33-.22-2.58.07-3.54-.84-4.21-3.31-1.57-5.83-3.58-11.54-5.4-17.3a.71.71,0,0,0,0-.68,6.88,6.88,0,0,0,.39-2.31c-2-10.3-4-20.6-6.07-30.88-2.82-13.91-5.83-27.78-8.57-41.7-1.44-7.27-2.83-14.59-3.63-22-1.7-15.66-3.21-31.34-4.39-47-.78-10.3,4.87-17.72,12.24-24.12,2.3-2,4.39-4.26,6.57-6.4a7.67,7.67,0,0,0,2.19-.32c7.08-3.35,14-7.08,21.23-10.06s14.45-5.19,21.75-7.57a62.43,62.43,0,0,1,7.39-1.52l-.13-1.1a30.12,30.12,0,0,0-5.48.33c-3.58.86-7,2.21-10.62,3.06-11.23,2.67-21.61,7.44-31.75,12.75-1.8,1-3.07,2.92-4.58,4.42a44.36,44.36,0,0,0-6.29,3.23c-15.06,10.87-16.28,26.76-15.08,43.24.67,9.07,2.24,18.08,3.4,27.12.1.74.12,1.49.26,2.22,2.61,13.09,5.27,26.17,7.83,39.27,1.88,9.63,3.48,19.32,5.47,28.93,1.87,9,4.08,18,6.32,27.8a70.58,70.58,0,0,1-7,1.54c-3.63.46-7.31.59-11,.86v.3l-1.91,0-2.41-.27,4.58-2.85-6.7,1.17c-4.17-15.38-8.6-30.69-12.44-46.15a640.31,640.31,0,0,1-15.24-86c0-5.48-.12-11,0-16.44.32-13.27,3-25.7,14.33-34.28,6.18-4.66,12.67-8.94,19.13-13.22,3.72-2.45,7.66-4.55,11.51-6.8,3.83-1.59,7.7-3.12,11.5-4.79a553,553,0,0,1,84.48-28.82c27.87,17.72,57.15,22.8,88.44,9.87.24,5.33.67,10.65.69,16,.06,18.35-2,36.37-9.25,53.45-5.74,13.52-15.09,23-30.28,24.91q-15.32,1.93-30.76,2.73c-12.83.66-25.71.49-38.54,1.2a185.37,185.37,0,0,0-23.95,2.94c-6.74,1.28-7.91,3.51-7.55,10.35,1,15.21,1.92,30.43,3.07,45.63.55,7.28,1.58,14.53,2.39,21.8.58,7,1,14,1.77,21,1.11,10.68,2.4,21.34,3.61,32,.46,5.75.91,11.5,1.38,17.48l-6.19.53ZM781,671.34l-.2-.36c-.08.1-.22.2-.23.31s.11.23.17.35Z"/><path class="cls-6" d="M510.26,302.49c2.87-6,5.31-10.38,7.14-15A190.73,190.73,0,0,0,524,268.23c1.09-4-2-6.4-8.28-8.42a98.2,98.2,0,0,1-30.05-16.16,91.86,91.86,0,0,1-24.35-27.87,80.13,80.13,0,0,1-9.23-27.54c-2.17-14.12.59-27.33,5.78-40.16,6.12-15.15,17-26.67,29.89-36.27,15.3-11.36,32.57-18.88,51.27-21.43,13-1.78,26.46-.58,39.71-.44s25.21,4.94,37,10.06c18.52,8,33.77,20.31,44.51,37.53,6.41,10.26,11,21.48,11.24,33.8.19,8.11.57,16.47-1.12,24.3-2.76,12.84-9.17,24.21-17.84,34.26a103.48,103.48,0,0,1-41.47,29.2c-10,3.85-20.84,5.78-31.45,7.74-7.42,1.37-15.09,1.37-22.66,1.93-6.17.45-8.91,5.15-12.14,9.43-7.1,9.41-14.8,18.23-26.29,22.5C516.3,301.53,513.81,301.74,510.26,302.49Zm55.43-104.35c-1.88,3.71-3.48,7.21-5.36,10.53-5.21,9.16-2.65,17.7,6.84,22.42a27.56,27.56,0,0,0,35.08-8.81c5.2-7.3,8.12-8.47,16.31-6.59,12.7,2.91,18.62.33,25.25-11,5-8.55,3.74-15.23-4.17-21.14-3.07-2.29-6.39-4.23-8.66-5.72,3.78-6.8,7.88-13,10.82-19.77,3.08-7.07.38-12.91-7-15.38-14.47-4.84-28.36-3-41.25,5.22-4,2.52-5.36,6.27-5,11.18.51,6.45.13,13,.13,20.38l-34.9-21.88c3.62-3.51,7.2-7.25,11.07-10.66,4.26-3.75,8.93-7,13.13-10.86,1.21-1.1,2.31-3.67,1.82-4.92s-3.13-2.69-4.63-2.5c-5,.63-10.08,1.37-14.73,3.13-10.9,4.12-19.79,2.72-27.8-6.43-9.15-10.45-28.18-10.67-38.35-1.22-6.77,6.3-7.6,15-2.09,23.64,2.52,4,5.31,7.8,8.06,11.81-16.88,6.64-25.38,12.67-26.54,19.35,7.46-8.07,15.72-14.75,26.87-16.52,2,5.23,1.51,8.76-1.76,13.26-2.28,3.15-4.95,6.05-7,9.35-4.39,7.19-2.33,14.51,5.19,18.05,6.61,3.11,13.49,3.4,19.59-1.16,5.93-4.43,5.59-10.75,4-17.16a27.63,27.63,0,0,1-.71-3.06c-.74-5.67-1.28-11.32,2.66-16.4C540.27,171.89,549.51,189,565.69,198.14Z"/><path class="cls-7" d="M228.42,610.25c-10.41-1.45-21-2-31.18-4.57-14.65-3.65-21.52-15-24.47-29-3.36-16,.85-30.54,8.47-44.42,6.59-12,8-24.77,6.31-38.12-1.15-9-1.7-18.07-3.24-27-1.31-7.61-.16-14.9,1.87-22,2-6.92,5.29-13.45,7.76-20.24,4.08-11.26,6.94-22.52,5.2-34.91a80.28,80.28,0,0,1,.72-25.41c2.66-14.39,10.87-18.7,24.29-21.08a31.15,31.15,0,0,1,24.31,5.33c3.93,2.91,7.56,6.36,9.42,11.59,4.35,12.28,2.87,24.21.08,36.48-3,13.2-4.06,26.54,3,39.1q3.13,5.63,6.55,11.11c5.33,8.61,5.25,17.71,2.56,27-3,10.53-6,21.18-1.9,31.95,2.3,6,5.65,11.66,8.87,17.28,4.85,8.48,10,16.67,11.1,26.83,1.7,15.87-.85,30.51-10.44,43.59C269,605.71,256.54,610,242.55,611.06c-3.73.27-7.48.1-11.23.13,0-6.52-.2-13.05.13-19.56a15.51,15.51,0,0,1,2.3-7.55c6.38-9.47,13.11-18.7,19.63-28.07.45-.63.19-1.75.26-2.65-.85.29-2,.31-2.48.9-3.19,4.29-6.24,8.69-9.32,13.07l-8.54,12.16c-1.26-12.26-1.93-24.12-2-36-.07-10.75.65-21.5.73-32.25.14-17.81.06-35.64,0-53.46,0-2,.69-4.75-3.56-4.45v86.73a10,10,0,0,1-2.78-3.81c-5.42-11.9-10.78-23.84-16.29-35.7-.47-1-2-1.55-3-2.31-.21,1-.89,2.23-.55,3,6.4,13.87,13,27.65,19.37,41.51,1.35,2.92,3.08,6.06,3.12,9.11C228.6,571.32,228.44,590.78,228.42,610.25Z"/><path class="cls-8" d="M954.16,441.14c-31.29,12.93-60.57,7.85-88.44-9.87-1.46-15.58-3.07-31.15-4.27-46.75-.25-3.26-1.3-5.22-4.05-6.64s-5.18-2.9-7.76-4.36c-1.39-3.25-2.69-6.54-4.2-9.73-1.82-3.87-2.66-7.78-1.22-12l9.34-22.07c-1.7,2.06-3.06,3.19-3.76,4.64-2.23,4.65-4.21,9.41-6.29,14.13l-2-1.72c-2.63-4.07-5.37-8.07-7.85-12.22-4.36-7.31-8.57-14.72-12.84-22.09,11.53-11.05,24.6-19.55,40.06-24,6.85-2,13.74-3.8,20.68-5.41,2.69-.63,5.57-.5,8.36-.72,1.15,2.43,1.69,5.57,3.55,7.15,5.64,4.79,12.12,3.27,18.41,1.15,3.66-1.24,8-1.89,7.46-7.46,0-.32,1.29-.76,2-1.15,13.13.27,25.75,2.75,37.72,8.39,10.21,4.81,16.16,12.86,19,23.56a28.84,28.84,0,0,0,1.09,2.85l.84,4,.36,6.27L980,344.25q-1.41,3.72-2.8,7.44a9.12,9.12,0,0,0-2-1c-8-2-16.23-3.62-24.09-6.2-3.63-1.19-5.25-.41-6.71,2.52-.53,1.07-1.07,2.14-1.61,3.2-4.72,9.45-9.46,18.88-14.14,28.34-1.62,3.26-3.33,3-5.17.3-2.64-3.94-5.06-8-7.86-11.87-6.37-8.73-13.13-17.19-19.3-26.05-2.88-4.13-6.37-7.86-6.61-13.77-.31-7.6-4.35-14.13-9.39-19.82a12.84,12.84,0,0,0-3-1.89l-1,.83c.87,2.28,1.85,4.53,2.54,6.86a4.36,4.36,0,0,1-.39,2.82c-.15.31-1.55.44-2,.12-5.21-3.44-11.45-5.4-15.22-10.93-1-1.45-2.85-2.3-4.31-3.43l-.84,1c.73,1.39,1.46,2.78,2.61,5l-7.89-3.56c.67,2.51,1.06,4,1.68,6.37l-5-2.95c-.26,2.72-.61,5.07-.66,7.44,0,1.46-.18,3.47.66,4.3,4.91,4.92,9.16,10.34,16.27,13.05A31.36,31.36,0,0,1,877,342.71c3.11,4.23,4,10.13,5.7,15.32,2.69,8,4.93,16.19,8.06,24s7.22,15.43,10.83,23.15c1.24,2.64,2,5.57,3.56,8,2.49,3.83,5.64,7.24,8.23,11a17.45,17.45,0,0,0,27.46,1.68c5.47-6.35,10.36-13.21,15.51-19.85.37,9.1.39,18.23,1.3,27.27C958,437.08,957.54,439.5,954.16,441.14Z"/><path class="cls-9" d="M320,722.54c-17.94.29-36.49-17-37.63-35.12-.21-3.26,0-6.54,0-9.81,4-16.57,14.24-27.11,30.51-31.92a20.77,20.77,0,0,1,3.05-.45l6.73,0,153.87,0c-4.38,2.4-8.84,4.67-13.13,7.24-8.2,4.91-13.22,12.52-15.51,21.46a38.07,38.07,0,0,0,18.46,43c3.13,1.71,6.41,3.15,9.62,4.72l-.07.83Z"/><path class="cls-10" d="M444.23,333.54c14.44,1.24,27.44,5.6,36.43,17.8,7.23,9.79,14,19.92,21.19,29.76,2.07,2.84,2,5.17-.32,7.5s-4.82,4.38-7.13,6.68a32.83,32.83,0,0,0-2.81,3.66,16.42,16.42,0,0,0-2.22.08c-8,1.26-10.55,4.75-9.13,12.36,1,5.45,1.94,10.92,2.9,16.38q2.1,13.89,4.19,27.76c0,.31-.05.63-.07.94h-8.2c-1-.56-1.93-1.48-3-1.63-5.08-.74-10.2-1.23-15.29-1.9a5.77,5.77,0,0,1-2.82-1.06,137.44,137.44,0,0,1-33.12-38.27,97.64,97.64,0,0,0-5.95-8.31l3.43-2.55c-4-7.58-7.93-15.09-11.88-22.6l-1.17.62c3.67,7.08,7.33,14.16,11.18,21.6l-28.3,15.51c-1.88-2.92-3.5-5.4-5.09-7.9s-3.09-4.88-4.63-7.32l-1.15.84c3.4,5.37,6.81,10.74,10.31,16.25l7.57-3.82a9,9,0,0,0,.67,1.63c8.66,12.95,20.8,22.31,32.8,31.82,3.66,2.9,7.3,5.84,10.94,8.76-2.38.66-4.72,1.67-7.15,1.94-10.58,1.19-21.19,2.2-31.79,3.21-7.66.72-15.34,1.35-23,2-2.46-22.63-5.63-45.21-7.11-67.89-.74-11.43.28-23.25,4.61-34.3a31.66,31.66,0,0,1,12.58-15.31A80.51,80.51,0,0,1,420,336c2.28,1.83,4.52,5.12,6.86,5.19,4.65.16,9.39-1.34,14.05-2.39C443.55,338.22,444.77,336.33,444.23,333.54Z"/><path class="cls-11" d="M381.62,465.29c7.67-.67,15.35-1.3,23-2,10.6-1,21.21-2,31.79-3.21,2.43-.27,4.77-1.28,7.15-1.94a117.74,117.74,0,0,1,9.55,7c3.84,3.39,7.18,7.35,11,10.81,5.91,5.39,12.85,4.65,17.55-1.5.94-1.24,2.37-2.11,4.18-3.67-2.56-2.28-5.15-4.77-7.94-7-2.13-1.72-3.75-3.18-.49-5.34a9.39,9.39,0,0,0,1.67-1.91h8.2l9.74,2.43.24-1.08L496,456.64c5.14-.37,10.27-1,15.41-1.05,5.79,0,11.59.47,17.39.74l2-.08H531c15.65,2.69,23,11.56,22.88,27.49,0,6.12.06,12.24.09,18.36q-.25,4.55-.52,9.07-4.25,21-8.52,42.12l-4.56.45H517.17a31.24,31.24,0,0,1-1-5.41c-.13-6.43,0-12.87,0-19.3a172.19,172.19,0,0,0-10.61,19.43c-1.75,3.78-4,6-8.41,5.34l-23.27.08c-.58-1.35-1.67-2.72-1.61-4a53.26,53.26,0,0,1,1.27-9.66c2.15-9.62,4.48-19.21,6.74-28.81,2.1-5.08,1.43-6.44-3.61-6.18-8.27.44-16.52,1.39-24.8,1.75-7.59.33-15.2.16-22.8.21-11.32-.05-22.6-.42-33.21-5.11a30.61,30.61,0,0,1-16.56-29.56C379.43,470,376.66,466.26,381.62,465.29Zm118-7.33c6.77,4.09,13.2,7.53,19.08,11.72,2.83,2,5.76,5.14,6.71,8.33,3.36,11.29,1.29,22.27-3.78,32.75-1.74,3.61-3.53,7.2-5.3,10.8l1,.62c.56-.4,1.36-.68,1.66-1.24,4.35-8,8-16.34,9.29-25.48,1.35-9.3.49-18-6.44-25.26C515.83,463.87,508.39,460.36,499.61,458Z"/><path class="cls-7" d="M761,154.47c8.13,1.54,16.55,2.21,24.33,4.81,17.3,5.77,31.69,15.75,38.6,33.46,4.83,12.38,4.58,24.88-1.91,37-7.64,14.3-19.64,23-34.57,28.21-3.39,1.18-4.53,3.81-3,8,1.65,4.45,3.56,8.8,5.24,13.24a14.63,14.63,0,0,1,.42,3.42,11.8,11.8,0,0,1-3.21-.64,43.67,43.67,0,0,1-17-15.47c-1.92-3-4.15-4.39-7.72-4.08-13.89,1.21-26.89-2.8-38.55-9.41-13.46-7.63-24.45-18.81-27.36-34.62-3.11-16.88,2.22-31.66,14.78-44.07,11.22-11.1,25.15-15.51,39.83-18.59,3.16-.66,6.57-.09,9.86-.09C760.83,155.27,760.89,154.87,761,154.47Zm45.83,50.78c-1.37-.08-2.69-.23-4-.23-27.84,0-55.68-.05-83.52.08-1.48,0-4.08,1.18-4.24,2.13-.57,3.46,2.32,3.08,4.53,3,10.45-.22,20.9-.73,31.35-.69,17.48.06,35,.38,52.45.77C807.43,210.43,807.94,208.75,806.79,205.25Zm-45.53,13.17H742.84c-4.79,0-9.58-.12-14.37.08-1,0-1.87,1.24-2.8,1.91a17.69,17.69,0,0,0,2.61,2.45c.54.34,1.46.07,2.21.07,20.66,0,41.33,0,62-.11,1.35,0,3.72-1.18,3.84-2.06.45-3.24-2.36-2.29-4.06-2.3C781.92,218.38,771.59,218.41,761.26,218.42Zm-.23-26v0c-10.48,0-21-.06-31.44.08-1.31,0-2.61,1.09-3.92,1.67,1.23.93,2.45,2.65,3.68,2.66q31.89.25,63.78,0c1.13,0,2.25-1.47,3.38-2.25-1.19-.72-2.38-2-3.58-2.05C782.3,192.34,771.67,192.41,761,192.41Z"/><path class="cls-12" d="M980.3,327.12l-.36-6.27c2.31-.89,4.56-2.31,6.94-2.57,4-.43,8,0,12-.17a34,34,0,0,0,5.39-1.05h57.52l43.91,0h10.8l2,1.15q-5.57,3.84-11.14,7.68A36.12,36.12,0,0,0,1094,342.28c-5.49,13.44-10.13,27.25-16.2,40.41A24.12,24.12,0,0,1,1056,397.18c-10.92.37-21.85.05-32.78.12a27.23,27.23,0,0,0-4.66.86c-1.31-.28-2.62-.51-3.92-.83-15.46-3.86-30.53,3.33-37.44,17.87-.64-2.66-1.51-5.29-1.89-8-1.81-12.85-4.78-25.61-3.53-38.74l5.46-16.79q1.39-3.72,2.8-7.44l3.29-.62c-.19-3.42-.19-6.11-.51-8.77S984.44,328.62,980.3,327.12Z"/><path class="cls-13" d="M395.78,502c10.61,4.69,21.89,5.06,33.21,5.11-.23.55-.31,1.29-.71,1.61-6.49,5-9.57,12.06-11.4,19.64-2.65,10.94-2.49,21.69,2.76,32.13a36.25,36.25,0,0,0,20,18.24l-101.63.08-1.72,0c-7.29-.18-14.64.43-21.29-3.82-10.72-6.85-15.2-17.16-17.06-29.16-2.48-15.95,5-33.5,18.1-40.52a28,28,0,0,1,12.35-3.07C350.88,502,373.33,502.07,395.78,502Z"/><path class="cls-14" d="M890,278.54c-4.26.73-8.5,1.9-12.78,2.1-8.81.41-12.82-3.33-15.49-11.64-.91-2.84-4.12-5.13-6.65-7.21-4.13-3.39-8.94-6-12.79-9.68-6.55-6.22-10.1-18.73-.85-28.2,4.71-4.82,5.19-10.44,4.4-16.62-1.21-9.48.22-12.18,9.15-15.82,6-2.45,9.65-6.17,11-12.83,2.1-10.39,13.74-17.28,25.56-15.4,4.67.75,9.19,2.53,13.74,4,8.53,2.67,17.13,5.17,25.52,8.26,5.81,2.14,11.82,4.43,16.83,7.95,7.08,5,10.65,12.57,10.47,21.34-.15,6.68,2.14,11.59,7.37,15.87,9,7.32,9.6,16,2.57,25.14-1,1.31-2,2.64-3,4-3,4-3.27,8-.51,12.45,3.54,5.66,2.43,8.52-3.85,10.91-8.42,3.21-17.22,3.71-26.1,3.41-5.24-.18-10.47-.49-15.71-.75-1.84-10.76,2.6-19.81,7.62-28.8,1.49-2.67,2.43-4.92,6.15-5.32,4.05-.44,7.4-5.76,6.77-9.32-.55-3.07-3.94-5.3-7.82-3.78-5.07,2-7.5-.72-10-4a44.08,44.08,0,0,1-4.73-7.05c-3-6.14-5.76-12.45-8.68-18.66-1.63-3.48-6.77-5.87-11.4-5.53a5.81,5.81,0,0,0-5.66,5.42c-.79,6.21-4.42,9.72-9.69,12.43-2.44,1.25-4.34,3.56-6.79,5.64l8.58,2.48c.06.62.11,1.24.16,1.86-4.41-.16-10.87-3-8.71,5.46l.09-.09c-1.66,2-3.4,3.88-4.93,6-.72,1-1.59,2.37-1.4,3.4,2.5,13.85,4,28.41,21.51,32.78Z"/><path class="cls-15" d="M578.3,578.73c10,0,20.05-.05,30.07,0,13.48.08,25.27,7.79,29.9,21,4.3,12.32,2.61,24-6.75,34.11-4.46,4.82-10,7.34-15.77,9.83-4.16-.06-8.34-.15-12.52-.15l-113.31-.16c7.52-3,14.26-6.81,18.68-14.19,8.57-14.36,6.81-27.59-3.18-39.93-4.64-5.75-11.27-8.32-18.07-10.49l71.81-.1,1.21-.1,1.13-.21Z"/><path class="cls-16" d="M650,671.26c-5.36,7.58-4.79,15.82-1.49,23.66,4.51,10.71,13.15,16.77,24.61,18.75a4.19,4.19,0,0,1,1.14.64l0,.24c-1-.07-2.08-.19-3.12-.19q-71.3,0-142.61,0c-9.57,0-19.13-.12-28.69-.19.33-1.43.54-2.91,1-4.29,5.48-16.18,17.65-25.72,32.52-32.43,22.54-10.18,46.66-13,71-14,16.08-.64,32.23.43,48.35.74C651.81,666.51,650.91,668.89,650,671.26Z"/><path class="cls-4" d="M849.64,373.52c2.58,1.46,5.12,3,7.76,4.36s3.8,3.38,4.05,6.64c1.2,15.6,2.81,31.17,4.27,46.75a553,553,0,0,0-84.48,28.82c-3.8,1.67-7.67,3.2-11.5,4.79-1.38-4.23-2.81-8.44-4.12-12.69-2.62-8.49-5-17.06-7.83-25.49a100.21,100.21,0,0,0-6.31-15.51c-3.3-6.17-8.93-10.11-15.18-13.12,29.14,0,58.28-.38,87.41.07,13.2.2,20.75-8.27,24-18.21C848.36,377.8,849,375.66,849.64,373.52Z"/><path class="cls-15" d="M736.3,398.07c6.25,3,11.88,6.95,15.18,13.12a100.21,100.21,0,0,1,6.31,15.51c2.81,8.43,5.21,17,7.83,25.49,1.31,4.25,2.74,8.46,4.12,12.69-3.85,2.25-7.79,4.35-11.51,6.8-6.46,4.28-13,8.56-19.13,13.22-11.37,8.58-14,21-14.33,34.28-.13,5.48,0,11,0,16.44-2.31-6.41-4.84-12.74-6.89-19.22q-10.47-33-20.61-66.18c-2-6.67-4.43-13.49-4.76-20.34a32.24,32.24,0,0,1,40-32.79C733.77,397.39,735,397.74,736.3,398.07Z"/><path class="cls-17" d="M652.72,664.14c-16.12-.31-32.27-1.38-48.35-.74-24.3,1-48.42,3.84-71,14-14.87,6.71-27,16.25-32.52,32.43-.46,1.38-.67,2.86-1,4.29l-10.77-.22c-19.45-4-30.71-21.15-25-39,3.57-11.21,12.08-17.68,23.24-20.81,3.87-.23,7.74-.64,11.61-.65q88-.12,176.07-.15c-2.51.7-5.23,1-7.48,2.17C662.49,658.1,657.65,661.21,652.72,664.14Z"/><path class="cls-18" d="M820.83,312.51c4.27,7.37,8.48,14.78,12.84,22.09,2.48,4.15,5.22,8.15,7.85,12.22-7.54,2.71-15,5.54-22.64,8.12-11.54,3.91-23,8.15-34.76,11.34-13.71,3.73-26.55,0-37.69-8.09-10.08-7.33-19.27-15.86-29-23.73a7.54,7.54,0,0,0-4.72-1.9c-3.66.28-7.81.32-10.8,2.09-7.07,4.2-14.34,4.77-22,3.15-2.21-.47-6,0-4.71-4.53l-4.57-2.76,5.62-2.07-4.47-2c-.09-.48-.19-1-.28-1.43l7.32-2.22L673,320.47l-.19-1.35c8.87-1.7,18.9.43,26.19-7l-10.1-3.76,0-1.51a25.5,25.5,0,0,1,5-1.08,35.72,35.72,0,0,1,23.56,8c13.61,11,30,16.12,45.58,23.1,5.61,2.52,11,1.05,15.9-1.55C793,327.89,806.86,320.14,820.83,312.51Z"/><path class="cls-16" d="M355.26,636.88l-11.42-1,6.24-4.19c6.06-4.08,8.82-9.91,9.69-17s-2.14-13.27-4.51-19.61c13.84,0,27.7-.57,41.52,0,17.94.72,35.57,3.7,51.76,12,11.15,5.74,20.1,13.76,23.55,26.5.18,2.59-1.49,2.68-3.44,2.73-3.34.08-6.68.38-10,.59H355.26Z"/><path class="cls-18" d="M874.68,226.6c-2.16-8.5,4.3-5.62,8.71-5.46,0-.62-.1-1.24-.16-1.86l-8.58-2.48c2.45-2.08,4.35-4.39,6.79-5.64,5.27-2.71,8.9-6.22,9.69-12.43a5.81,5.81,0,0,1,5.66-5.42c4.63-.34,9.77,2.05,11.4,5.53,2.92,6.21,5.64,12.52,8.68,18.66a44.08,44.08,0,0,0,4.73,7.05c2.49,3.24,4.92,5.95,10,4,3.88-1.52,7.27.71,7.82,3.78.63,3.56-2.72,8.88-6.77,9.32-3.72.4-4.66,2.65-6.15,5.32-5,9-9.46,18-7.62,28.8q1.25,3.18,2.47,6.34c-.7.39-2,.83-2,1.15.53,5.57-3.8,6.22-7.46,7.46-6.29,2.12-12.77,3.64-18.41-1.15-1.86-1.58-2.4-4.72-3.55-7.15,0-1.28,0-2.56,0-3.84v-9.9c-17.47-4.37-19-18.93-21.51-32.78-.19-1,.68-2.42,1.4-3.4,1.53-2.07,3.27-4,4.93-6,0,.89-.26,2.28.18,2.58a8.68,8.68,0,0,0,4.34,1.71c.51,0,1.08-2.31,1.62-3.57a32.74,32.74,0,0,0-4.4-1.7C876,225.41,875.29,226.22,874.68,226.6ZM896,253.52l-4.89-4.41c-1.14,1.3-3.35,2.79-3.17,3.87.28,1.67,2.2,3.07,3.42,4.59Zm16.14-23.62c-2.1-1.61-3.3-3.25-4.37-3.16s-2.19,1.79-3.27,2.79c1,1.08,1.87,2.83,3,3S909.92,231.26,912.14,229.9Zm-11.78-9,13,.7C908.93,217.47,903.67,217.28,900.36,220.91Z"/><path class="cls-18" d="M444.23,333.54c.54,2.79-.68,4.68-3.32,5.27-4.66,1.05-9.4,2.55-14.05,2.39-2.34-.07-4.58-3.36-6.86-5.19,1.55-5-.59-13.06-4.58-16-4.35-3.21-8.91-6.14-13.39-9.19-.36-1.47-.73-2.93-1.09-4.41-7.52,2.22-11.85,1.15-14.9-3.34-2.68-3.95-1.56-8,3.07-9.05,3-.72,6.33-.14,10.36-.14,1.44-3.95,4.1-8.82,4.9-14,1.18-7.7,5.51-10.46,12.54-10.68a9,9,0,0,0,2.21-.26c2.06-.64,4.46-.95,5.93-2.27.61-.54-.8-3.33-1.28-5.09,14.22,3.86,17.06,3.41,20.8-3.33,7.16,2,10.9,7.73,14.91,13.22,6.44.13,7.87,2.94,4.87,8.81a11.31,11.31,0,0,0-1.13,6.31c2,14.19-4.12,24-16.15,30.78-6.23,3.51-6.92,5.31-4.46,12C443.12,330.77,443.69,332.15,444.23,333.54ZM415.9,284.85c-1.63,2.4-3.45,3.91-3.29,5.16s2.16,2.56,3.35,3.83c1.29-1.33,3.28-2.5,3.61-4C419.8,288.75,417.73,287.19,415.9,284.85Zm20.48,18.84,5.38,4.45c1.06-1.41,3.12-3,2.93-4.18-.24-1.61-2.24-2.95-3.48-4.41Zm13.46-17.77c1.79-2.6,3.58-4.07,3.44-5.32s-2.16-3.56-3.27-3.51a5.06,5.06,0,0,0-3.63,3.33C446.18,281.67,448.05,283.23,449.84,285.92Zm-7.48-12.3H455C451.07,270,446.53,269.88,442.36,273.62Zm-34.55,12.46,10.91-5.59C412.7,279.09,408,281.62,407.81,286.08Z"/><path class="cls-19" d="M228.42,610.25c0-19.47.18-38.93-.08-58.4,0-3.05-1.77-6.19-3.12-9.11-6.4-13.86-13-27.64-19.37-41.51-.34-.74.34-2,.55-3,1,.76,2.53,1.3,3,2.31,5.51,11.86,10.87,23.8,16.29,35.7a10,10,0,0,0,2.78,3.81V453.35c4.25-.3,3.55,2.43,3.56,4.45,0,17.82.12,35.65,0,53.46-.08,10.75-.8,21.5-.73,32.25.09,11.86.76,23.72,2,36l8.54-12.16c3.08-4.38,6.13-8.78,9.32-13.07.44-.59,1.63-.61,2.48-.9-.07.9.19,2-.26,2.65-6.52,9.37-13.25,18.6-19.63,28.07a15.51,15.51,0,0,0-2.3,7.55c-.33,6.51-.12,13-.13,19.56,0,15.19,0,30.38-.13,45.56,0,3,.94,3.9,3.85,3.82,6.25-.18,12.51,0,18.77-.1,1.95,0,3.65.08,3.62,2.66-.05,6.72-.36,13.45-.11,20.15.5,13.5-10.63,22.47-22.12,22.17-5.37-.14-10.83.39-16.09-.41-9.49-1.44-15-7.74-17.64-16.69V660.5h26.95Z"/><path class="cls-20" d="M459.48,271.49c-4-5.49-7.75-11.27-14.91-13.22-3.74,6.74-6.58,7.19-20.8,3.33.48,1.76,1.89,4.55,1.28,5.09-1.47,1.32-3.87,1.63-5.93,2.27a9,9,0,0,1-2.21.26c-7,.22-11.36,3-12.54,10.68-.8,5.16-3.46,10-4.9,14-4,0-7.35-.58-10.36.14-4.63,1.09-5.75,5.1-3.07,9.05,3,4.49,7.38,5.56,14.9,3.34.36,1.48.73,2.94,1.09,4.41-4.45-.27-9,0-13.34-.94-8.67-1.87-14.3-7.6-16.18-16.17A57,57,0,0,1,376,259c2.41-5.77,4.21-6.53,7.94-5,5.06-4.47,9.91-8.89,14.92-13.12,1.89-1.6,4.06-2.4,5.09,1.08,2.85-2.15,5.46-4.34,8.29-6.2a18.66,18.66,0,0,1,14.58-2.75c2.64.57,5.16,1.66,3,5.22,3.18,0,6.13-.18,9.05,0,14.54,1.08,22.73,11.37,21.22,26.5C459.82,267,459.66,269.26,459.48,271.49Z"/><path class="cls-21" d="M472.09,633.55c-3.45-12.74-12.4-20.76-23.55-26.5-16.19-8.34-33.82-11.32-51.76-12-13.82-.57-27.68,0-41.52,0-3.71-2.24-7.38-4.53-11.13-6.71a45.41,45.41,0,0,0-4.25-1.95,9.67,9.67,0,0,1,1.76-.3c45.2,0,90.4-.09,135.6.05,9.92,0,19.17,7.28,22.7,16.26A25.61,25.61,0,0,1,472.87,637Z"/><path class="cls-22" d="M472.87,637a25.61,25.61,0,0,0,27.07-34.59c-3.53-9-12.78-16.23-22.7-16.26-45.2-.14-90.4-.06-135.6-.05a9.67,9.67,0,0,0-1.76.3l-2-6.58.21-.94,101.63-.08c9.07,0,18.13.06,27.19,0a19.9,19.9,0,0,0,4.52-1.11l16,1.18c6.8,2.17,13.43,4.74,18.07,10.49,10,12.34,11.75,25.57,3.18,39.93-4.42,7.38-11.16,11.17-18.68,14.19-2.24,0-4.48,0-6.73,0l-144.93-.08v-6.46H458.63Z"/><path class="cls-19" d="M1079.35,121.36c26-1.62,48,22.36,48.24,46.72.25,27.22-21.06,49.27-47.49,49.21-29.12-.06-48.08-21.6-48.73-47.11C1030.66,142.14,1054.14,120.07,1079.35,121.36Zm-37.44,47.45c-.8,18.73,15.48,37.82,37.23,38,21.28.19,39.44-16.22,38.82-38.76-.58-21.25-16-36.93-38-37.45C1058.92,130.14,1041.91,147.74,1041.91,168.81Z"/><path class="cls-20" d="M1034.57,620.14h20.6q1.14,28.56,2.28,57.1c.09,2.22.45,4.43.69,6.64,0,3.59.17,7.18,0,10.76-.11,2.2-.13,4.86-1.35,6.42-1.55,2-4.29,4.18-6.47,4.12-1.63,0-4-3.27-4.6-5.46-1.42-5.46-2-11.15-2.91-16.74-.15-1.92-.22-3.86-.48-5.77Q1038.46,648.68,1034.57,620.14Z"/><path class="cls-18" d="M528.79,456.33c-5.8-.27-11.6-.78-17.39-.74-5.14,0-10.27.68-15.4,1.05l-5.3-.8h10.23c-.36-1.84-.27-3-.78-3.73-3.95-5.78-8-11.47-12-17.2-1.67-2.37-3.31-4.76-5-7.15-1-5.46-1.88-10.93-2.9-16.38-1.42-7.61,1.11-11.1,9.13-12.36a16.42,16.42,0,0,1,2.22-.08c1.56,4.59,2.9,9.27,4.71,13.76,4.08,10.18,7.42,20.86,13,30.15,2.84,4.69,10,6.77,15.13,10.11C526,454,527.35,455.2,528.79,456.33Z"/><path class="cls-23" d="M338.26,643.34l144.93.08c2.25,0,4.49,0,6.73,0l113.31.16c4.18,0,8.36.09,12.52.15L670,644h5v9.31q-88,.06-176.07.15c-3.87,0-7.74.42-11.61.65,1.64-.54,3.27-1.55,4.91-1.55q88.25-.12,176.48-.06H674V645.3H476.57l-153.87,0-6.73,0L330.85,644Z"/><path class="cls-17" d="M540.41,553.73l4.56-.45q4.28-21.07,8.52-42.12l20.22.44c-.63.85-1.09,2.17-1.92,2.47-9.51,3.46-15.38,21.35-14.15,30.41,1.62,11.94,8.06,19.82,17.84,25.74l-17,.39Z"/><path class="cls-18" d="M778.43,669.6a.71.71,0,0,1,0,.68q.55,7.94,1.13,15.86c-2.1,1.07-4.14,2.26-6.29,3.19-7.34,3.15-14.55,6.77-22.16,9-2.93.87-6.81-1.44-10.26-2.3,3-2.86,5.82-6.1,9.2-8.47,5.43-3.82,8.5-8.54,8.08-15.29.24-.62.49-1.23.73-1.85a1.61,1.61,0,0,0,.07-.75v-.3Z"/><path class="cls-24" d="M573.71,511.6l-20.22-.44q.27-4.53.52-9.07h24v9.12l-2.63.27Z"/><path class="cls-24" d="M558.49,570.61l17-.39c.91.95,2.34,1.77,2.63,2.88.46,1.77.16,3.75.19,5.63l-16.8-.36C560.5,575.78,559.49,573.2,558.49,570.61Z"/><path class="cls-22" d="M1118.43,318.21l-2-1.15c11.69-.42,23.69-2.82,34.18,4.88a37.46,37.46,0,0,1,14.21,19.6,45.62,45.62,0,0,1-4-5,37.83,37.83,0,0,0-24.14-17.81C1130.88,317.33,1124.53,318.3,1118.43,318.21Z"/><path class="cls-25" d="M843.51,348.54c2.08-4.72,4.06-9.48,6.29-14.13.7-1.45,2.06-2.58,3.76-4.64l-9.34,22.07C844,350.74,843.75,349.64,843.51,348.54Z"/><path class="cls-22" d="M1004.24,317.06a34,34,0,0,1-5.39,1.05c-4,.17-8-.26-12,.17-2.38.26-4.63,1.68-6.94,2.57l-.84-4Z"/><path class="cls-22" d="M1167.7,366.67c-.19-.22-.52-.43-.54-.67q-1-11.12-2-22.22A36.93,36.93,0,0,1,1167.7,366.67Z"/><path class="cls-22" d="M1163.28,391.92c.9-6.67,1.77-13.34,2.75-20,.08-.57.82-1,1.25-1.56Q1165.27,381.14,1163.28,391.92Z"/><path class="cls-22" d="M1061.76,317.06h0Z"/><path class="cls-22" d="M1113,317.07h0Z"/><path class="cls-20" d="M752.44,667.73l6.7-1.17-4.58,2.85-.22.26-1,0Z"/><path class="cls-17" d="M575.41,511.48l2.63-.27Z"/><path class="cls-21" d="M338.05,578.83l-.21.94-1.51-.9Z"/><path class="cls-3" d="M758.88,669.7a1.61,1.61,0,0,1-.07.75l-1.84-.77Z"/><path class="cls-18" d="M531,456.24h-.26a2.09,2.09,0,0,0,.14-.17Z"/><path class="cls-3" d="M753.39,669.7l1,0Z"/><path class="cls-2" d="M825.36,673.09c-1.21-10.67-2.5-21.33-3.61-32-.73-7-1.19-14-1.77-21l120.57.34,15.85.57c.21,1.62.4,3.24.62,4.86q3.53,26.26,7.06,52.54c-5.9-.58-11.79-1.45-17.7-1.69-12.36-.5-24.73-.65-37.09-1q-15.4-.4-30.81-.89Q851.92,674,825.36,673.09Z"/><path class="cls-26" d="M476.57,645.3H674v7.15h-5.22q-88.25,0-176.48.06c-1.64,0-3.27,1-4.91,1.55-11.16,3.13-19.67,9.6-23.24,20.81-5.71,17.9,5.55,35.08,25,39,1.56.46,3.12,1.33,4.68,1.34q88.14.12,176.28,0a23.22,23.22,0,0,0,4.23-.76l0-.24c.42,2.81.83,5.62,1.33,9h-5.78q-171.36,0-342.74-.11a70.13,70.13,0,0,1-7-.68H475.94l.07-.83c-3.21-1.57-6.49-3-9.62-4.72a38.07,38.07,0,0,1-18.46-43c2.29-8.94,7.31-16.55,15.51-21.46C467.73,650,472.19,647.7,476.57,645.3Z"/><path class="cls-2" d="M1034.57,620.14q3.87,28.53,7.73,57.07c.26,1.91.33,3.85.48,5.77-4.71-.6-9.4-1.49-14.13-1.73-14.6-.76-29.21-1.26-43.82-1.91-1.76-.08-3.52-.47-5.28-.71q-1.23-29.25-2.48-58.49Z"/><path class="cls-20" d="M977.07,620.14q1.24,29.25,2.48,58.49c.15,5.23.38,10.46.4,15.7a20.86,20.86,0,0,1-.84,5.7c-1,3.27-3,5.7-6.68,5.49s-4.67-3.19-5.15-6.3q-1.62-10.4-3.2-20.78-3.52-26.27-7.06-52.54c-.22-1.62-.41-3.24-.62-4.86,5-.25,9.93-.51,14.9-.74C973.22,620.21,975.15,620.19,977.07,620.14Z"/><path class="cls-27" d="M821.65,708c.16,21.27,1.53,17.87-17.18,22.77-11.19,2.93-22.82,4.29-34.32,5.84-2.73.36-5.74-1.34-8.62-2.1,1.78-2.37,3.14-5.33,5.44-7,4.89-3.57,10.28-6.47,15.46-9.65,2.27,1,4.63,2.89,6.81,2.71a47.49,47.49,0,0,0,14.26-3C809.79,715,815.62,711.27,821.65,708Z"/><path class="cls-27" d="M740.8,696.06c3.45.86,7.33,3.17,10.26,2.3,7.61-2.26,14.82-5.88,22.16-9,2.15-.93,4.19-2.12,6.29-3.19-.17,4.62,0,9.3-.66,13.85-.26,1.8-2,4.3-3.65,4.85-16.33,5.48-33,9.59-50.38,9.63-1.87,0-3.74-1.2-5.62-1.84,1-1.83,1.68-4.23,3.23-5.4,5.24-4,10.8-7.5,16.29-11.11C739.21,695.79,740.1,696.06,740.8,696.06Z"/><path class="cls-18" d="M821.65,708c-6,3.24-11.86,7-18.15,9.56a47.49,47.49,0,0,1-14.26,3c-2.18.18-4.54-1.74-6.81-2.71a101.55,101.55,0,0,1,8.07-6.64c7.23-4.84,10.41-11.7,10.81-20.13h19.24Q821.09,699.56,821.65,708Z"/><path class="cls-28" d="M940.55,620.47,820,620.13c-.81-7.27-1.84-14.52-2.39-21.8-1.15-15.2-2.06-30.42-3.07-45.63,4.08.6,8.16,1.68,12.24,1.71,27.84.15,55.68.07,83.52.08a35.79,35.79,0,0,0,34.78-25.64c4.32-14.5,8.28-29.1,12.38-43.66q9.88-35,19.75-70c6.91-14.54,22-21.73,37.44-17.87,1.3.32,2.61.55,3.92.83A41.63,41.63,0,0,1,1034,412.57a28.64,28.64,0,0,1,3.67,22.76c-4.36,17.49-9.16,34.87-14,52.23-7.5,27-14.95,53.94-22.87,80.78-4,13.75-12.28,25.12-23.17,34.4a73.67,73.67,0,0,1-35.94,16.57C941.24,619.38,940.92,620.07,940.55,620.47Z"/><path class="cls-4" d="M977.19,415.2q-9.88,35-19.75,70c-4.1,14.56-8.06,29.16-12.38,43.66a35.79,35.79,0,0,1-34.78,25.64c-27.84,0-55.68.07-83.52-.08-4.08,0-8.16-1.11-12.24-1.71-.36-6.84.81-9.07,7.55-10.35A185.37,185.37,0,0,1,846,539.41c12.83-.71,25.71-.54,38.54-1.2q15.42-.8,30.76-2.73c15.19-1.92,24.54-11.39,30.28-24.91,7.24-17.08,9.31-35.1,9.25-53.45,0-5.33-.45-10.65-.69-16,3.38-1.64,3.88-4.06,3.5-7.84-.91-9-.93-18.17-1.3-27.27a10.71,10.71,0,0,1,.42-2.63c3.11-7.18,6.32-14.32,9.43-21.5,1.92-4.45,3.71-8.95,5.56-13.42-1.25,13.13,1.72,25.89,3.53,38.74C975.68,409.91,976.55,412.54,977.19,415.2Z"/><path class="cls-20" d="M778.43,669.6l-19.56-.2c3.66-.27,7.34-.4,11-.86a70.58,70.58,0,0,0,7-1.54c-2.24-9.79-4.45-18.76-6.32-27.8-2-9.61-3.59-19.3-5.47-28.93-2.56-13.1-5.22-26.18-7.83-39.27-.14-.73-.16-1.48-.26-2.22-1.16-9-2.73-18-3.4-27.12-1.2-16.48,0-32.37,15.08-43.24a44.36,44.36,0,0,1,6.29-3.23h0c-2.18,2.14-4.27,4.39-6.57,6.4-7.37,6.4-13,13.82-12.24,24.12,1.18,15.7,2.69,31.38,4.39,47,.8,7.36,2.19,14.68,3.63,22,2.74,13.92,5.75,27.79,8.57,41.7,2.09,10.28,4.09,20.58,6.07,30.88A6.88,6.88,0,0,1,778.43,669.6Z"/><path class="cls-20" d="M775,495.19c1.51-1.5,2.78-3.47,4.58-4.42,10.14-5.31,20.52-10.08,31.75-12.75,3.58-.85,7-2.2,10.62-3.06a30.12,30.12,0,0,1,5.48-.33l.13,1.1a62.43,62.43,0,0,0-7.39,1.52c-7.3,2.38-14.67,4.64-21.75,7.57s-14.15,6.71-21.23,10.06a7.67,7.67,0,0,1-2.19.32Z"/><path class="cls-20" d="M781,671.34l-.26.3c-.06-.12-.18-.24-.17-.35s.15-.21.23-.31Z"/><path class="cls-25" d="M565.69,198.14c-16.18-9.11-25.42-26.25-43.05-32.89-3.94,5.08-3.4,10.73-2.66,16.4a27.63,27.63,0,0,0,.71,3.06c1.59,6.41,1.93,12.73-4,17.16-6.1,4.56-13,4.27-19.59,1.16-7.52-3.54-9.58-10.86-5.19-18.05,2-3.3,4.69-6.2,7-9.35,3.27-4.5,3.74-8,1.76-13.26-11.15,1.77-19.41,8.45-26.87,16.52,1.16-6.68,9.66-12.71,26.54-19.35-2.75-4-5.54-7.83-8.06-11.81-5.51-8.68-4.68-17.34,2.09-23.64,10.17-9.45,29.2-9.23,38.35,1.22,8,9.15,16.9,10.55,27.8,6.43,4.65-1.76,9.76-2.5,14.73-3.13,1.5-.19,4.12,1.2,4.63,2.5s-.61,3.82-1.82,4.92c-4.2,3.82-8.87,7.11-13.13,10.86-3.87,3.41-7.45,7.15-11.07,10.66l34.9,21.88c0-7.41.38-13.93-.13-20.38-.39-4.91,1-8.66,5-11.18,12.89-8.18,26.78-10.06,41.25-5.22,7.36,2.47,10.06,8.31,7,15.38-2.94,6.74-7,13-10.82,19.77,2.27,1.49,5.59,3.43,8.66,5.72,7.91,5.91,9.16,12.59,4.17,21.14-6.63,11.36-12.55,13.94-25.25,11-8.19-1.88-11.11-.71-16.31,6.59a27.56,27.56,0,0,1-35.08,8.81c-9.49-4.72-12-13.26-6.84-22.42C562.21,205.35,563.81,201.85,565.69,198.14Zm2,1.24c-2.25,4.23-4.41,8.13-6.41,12.11-3.06,6-1.38,12.17,4.29,16.08a25.24,25.24,0,0,0,34.62-6.08c6.23-8.77,9.72-10.08,20.19-7.56,1.17.27,2.32.6,3.5.79,9.64,1.58,22.42-11.19,20.56-20.84a13.06,13.06,0,0,0-3.69-6.41c-2.54-2.46-5.79-4.17-8.59-6.39s-5.22-2.25-8.29-.06c-2.34,1.68-5.37,2.55-8.23,3.31-8.35,2.2-16.53.95-24.5-1.91C583.9,201.31,581.66,202.92,567.66,199.38Zm11.39-66.19L578,130.78c-2.72,0-5.54-.48-8.12.11-4.2,1-8.25,2.61-12.36,4-9.68,3.19-18,1.17-24.78-6.54-6-6.88-13.65-9.57-22.52-8.63-7.78.84-14.7,3.76-18.16,11.34-3.21,7,.07,13,4.19,18.69,1.76,2.41,3.16,5.09,5,7.43a6.75,6.75,0,0,0,3.66,2.34c4.82.89,9.71,1.47,14.58,2.09,1.12.14,2.7.46,3.36-.12,8.08-6.95,17.21-6.6,26.74-4.25a3.84,3.84,0,0,0,3-.81c7-6.26,13.86-12.66,20.83-18.93C575.16,135.88,577.16,134.61,579.05,133.19Zm47.64,43.43A41.7,41.7,0,0,0,640,157.06c2-5.84.37-10.11-5.52-12.22-14-5-27.32-2.86-39.81,4.85-3,1.84-4.26,4.68-4,8.4.4,6.54.32,13.11.65,19.65a3.86,3.86,0,0,0,1.85,2.91c11.08,4,21.84,4,32.43-3.17-5.68-4.52-12-8.27-12.76-16.06Zm-105.94-13.1-17.63-2.31c2.64,8.91-1.15,14.8-6.19,20.3a25.55,25.55,0,0,0-3.37,4.75c-3.52,6.26-1.82,11.84,4.64,14.87,5.93,2.78,12,3.19,17.38-1.1,4.91-3.92,4.58-9.36,3.09-14.83C516.77,178.24,516.39,171.37,520.75,163.52Zm33.13-3.13L552,161.55c.73,2.69.92,5.71,2.3,8,2.85,4.72,6.55,8.91,9.49,13.58,1.78,2.85,3.86,6.16,3.91,9.29.08,5.38,3.12,6.1,7,6.34,6.87.44,15-9.46,13.51-16.52-.17-.78-1.26-1.48-2.06-2-5.16-3.3-10.32-6.57-15.53-9.76C565.1,167.07,559.48,163.75,553.88,160.39Zm-3.32-.1c-9.94-4.16-20.65-2.81-26.19,3.4,16.8,6.39,25.87,22.7,41.42,31.16a25.46,25.46,0,0,0-2.85-9.06c-2.11-3.58-4.84-6.79-7.3-10.18C552.3,171,548.78,166.43,550.56,160.29Z"/><path class="cls-29" d="M971.77,368.48c-1.85,4.47-3.64,9-5.56,13.42-3.11,7.18-6.32,14.32-9.43,21.5a10.71,10.71,0,0,0-.42,2.63c-5.15,6.64-10,13.5-15.51,19.85a17.45,17.45,0,0,1-27.46-1.68c-2.59-3.78-5.74-7.19-8.23-11-1.56-2.42-2.32-5.35-3.56-8-3.61-7.72-7.66-15.26-10.83-23.15s-5.37-16-8.06-24c-1.75-5.19-2.59-11.09-5.7-15.32a31.36,31.36,0,0,0-13.28-10.36c-7.11-2.71-11.36-8.13-16.27-13.05-.84-.83-.7-2.84-.66-4.3.05-2.37.4-4.72.66-7.44l5,2.95c-.62-2.38-1-3.86-1.68-6.37l7.89,3.56c-1.15-2.21-1.88-3.6-2.61-5l.84-1c1.46,1.13,3.32,2,4.31,3.43,3.77,5.53,10,7.49,15.22,10.93.49.32,1.89.19,2-.12a4.36,4.36,0,0,0,.39-2.82c-.69-2.33-1.67-4.58-2.54-6.86l1-.83a12.84,12.84,0,0,1,3,1.89c5,5.69,9.08,12.22,9.39,19.82.24,5.91,3.73,9.64,6.61,13.77,6.17,8.86,12.93,17.32,19.3,26.05,2.8,3.82,5.22,7.93,7.86,11.87,1.84,2.73,3.55,3,5.17-.3,4.68-9.46,9.42-18.89,14.14-28.34.54-1.06,1.08-2.13,1.61-3.2,1.46-2.93,3.08-3.71,6.71-2.52,7.86,2.58,16,4.16,24.09,6.2a9.12,9.12,0,0,1,2,1Z"/><path class="cls-22" d="M980.3,327.12c4.14,1.5,2.18,5,2.51,7.74s.32,5.35.51,8.77l-3.29.62Z"/><path class="cls-18" d="M479.06,456.45a9.39,9.39,0,0,1-1.67,1.91c-3.26,2.16-1.64,3.62.49,5.34,2.79,2.25,5.38,4.74,7.94,7-1.81,1.56-3.24,2.43-4.18,3.67-4.7,6.15-11.64,6.89-17.55,1.5-3.79-3.46-7.13-7.42-11-10.81a117.74,117.74,0,0,0-9.55-7c-3.64-2.92-7.28-5.86-10.94-8.76-12-9.51-24.14-18.87-32.8-31.82a9,9,0,0,1-.67-1.63l19.73-10.63a97.64,97.64,0,0,1,5.95,8.31A137.44,137.44,0,0,0,458,451.86a5.77,5.77,0,0,0,2.82,1.06c5.09.67,10.21,1.16,15.29,1.9C477.13,455,478.07,455.89,479.06,456.45Z"/><path class="cls-2" d="M483.14,427.76c1.66,2.39,3.3,4.78,5,7.15,4,5.73,8.09,11.42,12,17.2.51.74.42,1.89.78,3.73H490.7l-3.37-.32Q485.25,441.65,483.14,427.76Z"/><path class="cls-5" d="M418.89,405.28l-19.73,10.63-7.57,3.82c-3.5-5.51-6.91-10.88-10.31-16.25l1.15-.84c1.54,2.44,3.08,4.89,4.63,7.32s3.21,5,5.09,7.9l28.3-15.51c-3.85-7.44-7.51-14.52-11.18-21.6l1.17-.62c3.95,7.51,7.89,15,11.88,22.6Z"/><path class="cls-23" d="M487.33,455.52l3.37.32,5.3.8,1.24,1.17-.24,1.08-9.74-2.43C487.28,456.15,487.31,455.83,487.33,455.52Z"/><path class="cls-21" d="M480.2,511.35c-2.26,9.6-4.59,19.19-6.74,28.81a53.26,53.26,0,0,0-1.27,9.66c-.06,1.32,1,2.69,1.61,4q-1.14,8.68-2.27,17.39c-7-.23-14-.36-21-.73A21.64,21.64,0,0,1,434,562.18c-7.15-8.94-9-19-6.58-29.86,2.23-10.14,11.2-22.36,25.06-21.13C461.62,512,470.94,511.35,480.2,511.35Z"/><path class="cls-20" d="M471.53,571.25q1.14-8.7,2.27-17.39l23.27-.08c5.91,5.59,11.81,11.19,18.35,17.39.64-6.33,1.19-11.89,1.75-17.45h23.24l18.08,16.88c1,2.59,2,5.17,3,7.76l-1.13.21-1.21.1-71.81.1-16-1.18C471.44,575.48,471.49,573.37,471.53,571.25Z"/><path class="cls-24" d="M471.53,571.25c0,2.12-.09,4.23-.14,6.35a19.9,19.9,0,0,1-4.52,1.11c-9.06.1-18.12,0-27.19,0a36.25,36.25,0,0,1-20-18.24c-5.25-10.44-5.41-21.19-2.76-32.13,1.83-7.58,4.91-14.65,11.4-19.64.4-.32.48-1.06.71-1.61,7.6-.05,15.21.12,22.8-.21,8.28-.36,16.53-1.31,24.8-1.75,5-.26,5.71,1.1,3.61,6.18-9.26,0-18.58.65-27.77-.16-13.86-1.23-22.83,11-25.06,21.13-2.38,10.81-.57,20.92,6.58,29.86a21.64,21.64,0,0,0,16.59,8.34C457.53,570.89,464.53,571,471.53,571.25Z"/><path class="cls-17" d="M517.17,553.72c-.56,5.56-1.11,11.12-1.75,17.45-6.54-6.2-12.44-11.8-18.35-17.39,4.37.68,6.66-1.56,8.41-5.34A172.19,172.19,0,0,1,516.09,529c0,6.43-.08,12.87,0,19.3A31.24,31.24,0,0,0,517.17,553.72Z"/><path class="cls-23" d="M499.61,458c8.78,2.4,16.22,5.91,22.26,12.24,6.93,7.26,7.79,16,6.44,25.26-1.32,9.14-4.94,17.45-9.29,25.48-.3.56-1.1.84-1.66,1.24l-1-.62c1.77-3.6,3.56-7.19,5.3-10.8,5.07-10.48,7.14-21.46,3.78-32.75-.95-3.19-3.88-6.31-6.71-8.33C512.81,465.49,506.38,462.05,499.61,458Z"/><path class="cls-10" d="M806.79,205.25c1.15,3.5.64,5.18-3.43,5.09-17.48-.39-35-.71-52.45-.77-10.45,0-20.9.47-31.35.69-2.21.05-5.1.43-4.53-3,.16-.95,2.76-2.13,4.24-2.13,27.84-.13,55.68-.1,83.52-.08C804.1,205,805.42,205.17,806.79,205.25Z"/><path class="cls-10" d="M761.26,218.41c10.33,0,20.66,0,31,0,1.7,0,4.51-.94,4.06,2.3-.12.88-2.49,2.06-3.84,2.06-20.66.14-41.33.11-62,.11-.75,0-1.67.27-2.21-.07a17.69,17.69,0,0,1-2.61-2.45c.93-.67,1.84-1.87,2.8-1.91,4.79-.2,9.58-.08,14.37-.08Z"/><path class="cls-10" d="M761,192.41c10.64,0,21.27-.07,31.9.09,1.2,0,2.39,1.33,3.58,2.05-1.13.78-2.25,2.24-3.38,2.25q-31.89.19-63.78,0c-1.23,0-2.45-1.73-3.68-2.66,1.31-.58,2.61-1.66,3.92-1.67,10.48-.14,21-.08,31.44-.08Z"/><path class="cls-24" d="M559.16,578.68l1.21-.1Z"/><path class="cls-23" d="M674.31,714.55a23.22,23.22,0,0,1-4.23.76q-88.14,0-176.28,0c-1.56,0-3.12-.88-4.68-1.34l10.77.22c9.56.07,19.12.19,28.69.19q71.31,0,142.61,0C672.23,714.36,673.27,714.48,674.31,714.55Z"/><path class="cls-2" d="M472.87,637l-14.24-.08c3.34-.21,6.68-.51,10-.59,2,0,3.62-.14,3.44-2.73Z"/><path class="cls-2" d="M408.21,636.89h0Z"/><path class="cls-2" d="M414.54,636.88h0Z"/><path class="cls-2" d="M896,253.52l-4.64,4c-1.22-1.52-3.14-2.92-3.42-4.59-.18-1.08,2-2.57,3.17-3.87Z"/><path class="cls-14" d="M874.68,226.6c.61-.38,1.34-1.19,1.83-1.07a32.74,32.74,0,0,1,4.4,1.7c-.54,1.26-1.11,3.59-1.62,3.57a8.68,8.68,0,0,1-4.34-1.71c-.44-.3-.14-1.69-.18-2.58Z"/><path class="cls-14" d="M912.14,229.9c-2.22,1.36-3.57,2.85-4.62,2.67s-2-2-3-3c1.08-1,2.11-2.7,3.27-2.79S910,228.29,912.14,229.9Z"/><path class="cls-14" d="M900.36,220.91c3.31-3.63,8.57-3.44,13,.7Z"/><path class="cls-27" d="M415.9,284.85c1.83,2.34,3.9,3.9,3.67,4.95-.33,1.54-2.32,2.71-3.61,4-1.19-1.27-3.17-2.44-3.35-3.83S414.27,287.25,415.9,284.85Z"/><path class="cls-2" d="M436.38,303.69l4.83-4.14c1.24,1.46,3.24,2.8,3.48,4.41.19,1.21-1.87,2.77-2.93,4.18Z"/><path class="cls-27" d="M449.84,285.92c-1.79-2.69-3.66-4.25-3.46-5.5a5.06,5.06,0,0,1,3.63-3.33c1.11,0,3.11,2.14,3.27,3.51S451.63,283.32,449.84,285.92Z"/><path class="cls-25" d="M442.36,273.62c4.17-3.74,8.71-3.62,12.62,0Z"/><path class="cls-25" d="M407.81,286.08c.19-4.46,4.89-7,10.91-5.59Z"/><path class="cls-16" d="M1041.91,168.81c0-21.07,17-38.67,38-38.18,22,.52,37.47,16.2,38,37.45.62,22.54-17.54,38.95-38.82,38.76C1057.39,206.63,1041.11,187.54,1041.91,168.81Zm37.89-31.72-3.19,4c1,2.27,2,3.55,2,4.88.21,4.77.27,9.57,0,14.34a8.14,8.14,0,0,1-1.88,4.69c-2,2.25-2.19,4.79-.11,6.26,1.53,1.08,5,1.46,6.33.46,4.43-3.31,8.4-2.12,12.65-.12,3.83-2.93,3.82-3.21-.16-6.65-3.69,4.06-12.7,3.49-13.62-1.66-1.08-6.06-1.35-12.71.09-18.6C1082.83,141.32,1082.15,140,1079.8,137.09Z"/><path class="cls-30" d="M567.66,199.38c14,3.54,16.24,1.93,23.45-17,8,2.86,16.15,4.11,24.5,1.91,2.86-.76,5.89-1.63,8.23-3.31,3.07-2.19,5.45-2.18,8.29.06s6,3.93,8.59,6.39a13.06,13.06,0,0,1,3.69,6.41c1.86,9.65-10.92,22.42-20.56,20.84-1.18-.19-2.33-.52-3.5-.79-10.47-2.52-14-1.21-20.19,7.56a25.24,25.24,0,0,1-34.62,6.08c-5.67-3.91-7.35-10-4.29-16.08C563.25,207.51,565.41,203.61,567.66,199.38Z"/><path class="cls-30" d="M579.05,133.19c-1.89,1.42-3.89,2.69-5.64,4.27-7,6.27-13.83,12.67-20.83,18.93a3.84,3.84,0,0,1-3,.81c-9.53-2.35-18.66-2.7-26.74,4.25-.66.58-2.24.26-3.36.12-4.87-.62-9.76-1.2-14.58-2.09a6.75,6.75,0,0,1-3.66-2.34c-1.84-2.34-3.24-5-5-7.43-4.12-5.65-7.4-11.64-4.19-18.69,3.46-7.58,10.38-10.5,18.16-11.34,8.87-.94,16.5,1.75,22.52,8.63,6.74,7.71,15.1,9.73,24.78,6.54,4.11-1.35,8.16-3,12.36-4,2.58-.59,5.4-.11,8.12-.11Z"/><path class="cls-30" d="M626.69,176.62l-13.89-15.2c.76,7.79,7.08,11.54,12.76,16.06-10.59,7.16-21.35,7.2-32.43,3.17a3.86,3.86,0,0,1-1.85-2.91c-.33-6.54-.25-13.11-.65-19.65-.22-3.72,1.06-6.56,4-8.4,12.49-7.71,25.83-9.86,39.81-4.85,5.89,2.11,7.54,6.38,5.52,12.22A41.7,41.7,0,0,1,626.69,176.62Z"/><path class="cls-30" d="M520.75,163.52c-4.36,7.85-4,14.72-2.08,21.68,1.49,5.47,1.82,10.91-3.09,14.83-5.37,4.29-11.45,3.88-17.38,1.1-6.46-3-8.16-8.61-4.64-14.87a25.55,25.55,0,0,1,3.37-4.75c5-5.5,8.83-11.39,6.19-20.3Z"/><path class="cls-30" d="M553.88,160.39c5.6,3.36,11.22,6.68,16.79,10.1,5.21,3.19,10.37,6.46,15.53,9.76.8.51,1.89,1.21,2.06,2,1.49,7.06-6.64,17-13.51,16.52-3.93-.24-7-1-7-6.34-.05-3.13-2.13-6.44-3.91-9.29-2.94-4.67-6.64-8.86-9.49-13.58-1.38-2.29-1.57-5.31-2.3-8Z"/><path class="cls-30" d="M550.56,160.29c-1.78,6.14,1.74,10.71,5.08,15.32,2.46,3.39,5.19,6.6,7.3,10.18a25.46,25.46,0,0,1,2.85,9.06c-15.55-8.46-24.62-24.77-41.42-31.16C529.91,157.48,540.62,156.13,550.56,160.29Z"/><path class="cls-19" d="M1079.8,137.09c2.35,2.87,3,4.23,2.2,7.59-1.44,5.89-1.17,12.54-.09,18.6.92,5.15,9.93,5.72,13.62,1.66,4,3.44,4,3.72.16,6.65-4.25-2-8.22-3.19-12.65.12-1.34,1-4.8.62-6.33-.46-2.08-1.47-1.88-4,.11-6.26a8.14,8.14,0,0,0,1.88-4.69c.22-4.77.16-9.57,0-14.34-.06-1.33-1.06-2.61-2-4.88Z"/></svg>